{"title":"House Of 1000 Corpses (2003) - DVDRip (AC3 Audio)  [akhiugo]","uid":4744507,"size":894349312,"categoryP":"video","categoryS":"movies","magnet":"?xt=urn:btih:a8090d3ab98dd2c8e35717dfdbcb5d61c76e0c70&amp;dn=House+Of+1000+Corpses+%282003%29+-+DVDRip+%28AC3+Audio%29++%5Bakhiugo%5D&amp;tr=udp%3A%2F%2Ftracker.openbittorrent.com%3A80&amp;tr=udp%3A%2F%2Fopen.demonii.com%3A1337&amp;tr=udp%3A%2F%2Ftracker.coppersurfer.tk%3A6969&amp;tr=udp%3A%2F%2Fexodus.desync.com%3A6969","seeders":2,"leechers":0,"uploader":"akhiugo","files":-1,"time":1235766010,"description":"In House of 1000 Corpses, two young couples take a misguided tour onto the back roads of America in search of a local legend known as Dr. Satan. Lost and stranded, they are set upon by a bizarre family of psychotics. Murder, cannibalism and satanic rituals are just a few of the 1000+ horrors that await.\n\n\nIMDB Rating: 5.6/10 (21,679 votes)\n\n\nGeneral\nComplete name                    : House Of 1000 Corpses (2003) - [akhiugo].avi\nFormat                           : AVI\nFormat/Info                      : Audio Video Interleave\nFile size                        : 853 MiB\nDuration                         : 1h 29mn\nOverall bit rate                 : 1 338 Kbps\nWriting application              : VirtualDubMod 1.5.4.1 (build 2178/release)\nWriting library                  : VirtualDubMod build 2178/release\n\nVideo\nFormat                           : MPEG-4 Visual\nFormat profile                   : Streaming Video@L1\nFormat settings, BVOP            : Yes\nFormat settings, QPel            : No\nFormat settings, GMC             : No warppoints\nFormat settings, Matrix          : Custom\nCodec ID                         : XVID\nCodec ID/Hint                    : XviD\nDuration                         : 1h 29mn\nBit rate                         : 1 139 Kbps\nWidth                            : 656 pixels\nHeight                           : 368 pixels\nDisplay aspect ratio             : 16/9\nFrame rate                       : 25.000 fps\nResolution                       : 24 bits\nColorimetry                      : 4:2:0\nScan type                        : Progressive\nBits/(Pixel*Frame)               : 0.189\nStream size                      : 726 MiB (85%)\nWriting library                  : XviD 1.2.1 (UTC 2008-12-04)\n\nAudio\nFormat                           : AC-3\nFormat/Info                      : Audio Coding 3\nCodec ID                         : 2000\nDuration                         : 1h 29mn\nBit rate mode                    : Constant\nBit rate                         : 192 Kbps\nChannel(s)                       : 2 channels\nChannel positions                : L R\nSampling rate                    : 48.0 KHz\nStream size                      : 122 MiB (14%)\nAlignment                        : Aligned on interleaves\nInterleave, duration             : 96 ms (2.40 video frames)\nInterleave, preload duration     : 96 ms\n\n\nPlease help your fellow pirates by seeding after download!","torrent":{"xt":"urn:btih:a8090d3ab98dd2c8e35717dfdbcb5d61c76e0c70","amp;dn":"House+Of+1000+Corpses+%282003%29+-+DVDRip+%28AC3+Audio%29++%5Bakhiugo%5D","amp;tr":["udp%3A%2F%2Ftracker.openbittorrent.com%3A80","udp%3A%2F%2Fopen.demonii.com%3A1337","udp%3A%2F%2Ftracker.coppersurfer.tk%3A6969","udp%3A%2F%2Fexodus.desync.com%3A6969"],"infoHash":"a8090d3ab98dd2c8e35717dfdbcb5d61c76e0c70","infoHashBuffer":{"type":"Buffer","data":[168,9,13,58,185,141,210,200,227,87,23,223,219,203,93,97,199,110,12,112]},"announce":[],"urlList":[]}}